<svg width="500" height="240" fill="none" xmlns="http://www.w3.org/2000/svg"><mask id="a" maskUnits="userSpaceOnUse" x="0" y="0" width="500" height="240"><path fill="#fff" d="M0 0h500v240H0z"/></mask><g mask="url(#a)"><g filter="url(#filter0_i)" fill-rule="evenodd" clip-rule="evenodd"><path d="M253.998 183.948c131.364 23.163 216.816 92.896 230.714 14.077C498.61 119.207 403.385 36.534 272.02 13.371 140.656-9.792 22.897 35.326 9 114.144c-13.898 78.819 113.633 46.64 244.998 69.804z" fill="url(#paint0_linear)"/><path d="M253.998 183.948c131.364 23.163 216.816 92.896 230.714 14.077C498.61 119.207 403.385 36.534 272.02 13.371 140.656-9.792 22.897 35.326 9 114.144c-13.898 78.819 113.633 46.64 244.998 69.804z" fill="url(#paint1_linear)"/></g><mask id="b" maskUnits="userSpaceOnUse" x="1" y="-29" width="509" height="271"><path fill-rule="evenodd" clip-rule="evenodd" d="M253.998 183.948c131.364 23.163 216.816 92.896 230.714 14.077C498.61 119.207 403.385 36.534 272.02 13.371 140.656-9.792 22.897 35.326 9 114.144c-13.898 78.819 113.633 46.64 244.998 69.804z" fill="#fff"/><path fill-rule="evenodd" clip-rule="evenodd" d="M253.998 183.948c131.364 23.163 216.816 92.896 230.714 14.077C498.61 119.207 403.385 36.534 272.02 13.371 140.656-9.792 22.897 35.326 9 114.144c-13.898 78.819 113.633 46.64 244.998 69.804z" stroke="#fff"/></mask><g mask="url(#b)"><g opacity=".5"><rect x="328" y="73" width="107" height="8" rx="4" fill="#BCBCBC"/><rect x="348" y="65" width="107" height="8" rx="4" fill="#BCBCBC"/><rect x="298" y="57" width="107" height="8" rx="4" fill="#BCBCBC"/><rect x="357" y="81" width="97" height="8" rx="4" fill="#BCBCBC"/><rect x="358" y="89" width="97" height="8" rx="4" fill="#BCBCBC"/><rect x="298" y="105" width="97" height="8" rx="4" fill="#BCBCBC"/><rect x="361" y="97" width="37" height="8" rx="4" fill="#BCBCBC"/><rect x="331" y="97" width="37" height="8" rx="4" fill="#CCC"/><rect x="354" y="81" width="37" height="8" rx="4" fill="#CCC"/><rect x="344" y="65" width="37" height="8" rx="4" fill="#CCC"/><rect x="404" y="81" width="37" height="8" rx="4" fill="#CCC"/><rect x="388" y="97" width="37" height="8" rx="4" fill="#CCC"/></g><g opacity=".4"><rect width="107" height="8" rx="4" transform="matrix(-1 0 0 1 105 133)" fill="#BCBCBC"/><rect width="107" height="8" rx="4" transform="matrix(-1 0 0 1 85 125)" fill="#BCBCBC"/><rect width="107" height="8" rx="4" transform="matrix(-1 0 0 1 135 117)" fill="#BCBCBC"/><rect width="97" height="8" rx="4" transform="matrix(-1 0 0 1 76 141)" fill="#BCBCBC"/><rect width="97" height="8" rx="4" transform="matrix(-1 0 0 1 75 149)" fill="#BCBCBC"/><rect width="97" height="8" rx="4" transform="matrix(-1 0 0 1 135 165)" fill="#BCBCBC"/><rect width="37" height="8" rx="4" transform="matrix(-1 0 0 1 72 157)" fill="#BCBCBC"/><rect width="37" height="8" rx="4" transform="matrix(-1 0 0 1 102 157)" fill="#CCC"/><rect width="37" height="8" rx="4" transform="matrix(-1 0 0 1 79 141)" fill="#CCC"/><rect width="37" height="8" rx="4" transform="matrix(-1 0 0 1 89 125)" fill="#CCC"/><rect width="37" height="8" rx="4" transform="matrix(-1 0 0 1 29 141)" fill="#CCC"/><rect width="37" height="8" rx="4" transform="matrix(-1 0 0 1 45 157)" fill="#CCC"/></g><path opacity=".1" fill-rule="evenodd" clip-rule="evenodd" d="M142.633 125.632c39.735 0 71.948-32.212 71.948-71.948 0-39.736-32.213-71.948-71.948-71.948-39.736 0-71.948 32.212-71.948 71.948 0 39.736 32.212 71.948 71.948 71.948z" fill="#fff"/><path opacity=".1" fill-rule="evenodd" clip-rule="evenodd" d="M142.633 157.609c57.396 0 103.925-46.529 103.925-103.925 0-57.396-46.529-103.925-103.925-103.925-57.396 0-103.925 46.529-103.925 103.925 0 57.396 46.529 103.925 103.925 103.925z" fill="#fff"/><path opacity=".1" fill-rule="evenodd" clip-rule="evenodd" d="M147.962 200.245c78 0 141.231-63.232 141.231-141.231 0-78-63.231-141.232-141.231-141.232S6.732-18.986 6.732 59.014c0 77.999 63.23 141.231 141.23 141.231z" fill="#fff"/><path fill-rule="evenodd" clip-rule="evenodd" d="M143.05 72.523c10.174 0 18.421-8.248 18.421-18.422 0-10.174-8.247-18.421-18.421-18.421s-18.422 8.247-18.422 18.421 8.248 18.422 18.422 18.422zM104.466 58.86l-2.68-.794 2.68-.793.794-2.68.794 2.68 2.679.793-2.679.794-.794 2.68-.794-2.68zM186.339 26.111l-2.68-.794 2.68-.794.794-2.68.794 2.68 2.679.794-2.679.794-.794 2.68-.794-2.68zM382.834 91.61l-2.679-.794 2.679-.794.794-2.68.794 2.68 2.68.794-2.68.794-.794 2.68-.794-2.68zM317.336 50.673l-2.68-.794 2.68-.794.794-2.68.794 2.68 2.679.794-2.679.794-.794 2.68-.794-2.68zM327.336 110.673l-2.68-.794 2.68-.794.794-2.679.794 2.679 2.679.794-2.679.794-.794 2.68-.794-2.68zM244.336 120.673l-2.68-.794 2.68-.794.794-2.679.794 2.679 2.679.794-2.679.794-.794 2.68-.794-2.68zM47.155 107.984l-2.68-.794 2.68-.794.794-2.679.794 2.679 2.68.794-2.68.794-.794 2.68-.794-2.68zM202.16 65.964l-1.787-.529 1.787-.53.529-1.786.529 1.787 1.787.529-1.787.53-.529 1.786-.529-1.787z" fill="#fff"/><path fill-rule="evenodd" clip-rule="evenodd" d="M100.632 81.848a7.034 7.034 0 10-14.037-.586 5.568 5.568 0 10-.586 11.06v.007h21.1v-.102a3.81 3.81 0 10.479-7.497 3.813 3.813 0 00-3.703-4.709 3.807 3.807 0 00-3.253 1.827z" fill="#EBEBEB"/><path fill-rule="evenodd" clip-rule="evenodd" d="M490.601 153.156v90.481H-17.012V153.35c72.424-8.637 160.125-13.691 254.625-13.691 93.789 0 180.881 4.978 252.988 13.497z" fill="url(#paint2_linear)"/><path fill-rule="evenodd" clip-rule="evenodd" d="M490.601 153.156v90.481H-17.012V153.35c72.424-8.637 160.125-13.691 254.625-13.691 93.789 0 180.881 4.978 252.988 13.497z" fill="url(#paint3_linear)"/></g></g><defs><linearGradient id="paint0_linear" x1="362.326" y1="49.635" x2="133.038" y2="245.881" gradientUnits="userSpaceOnUse"><stop stop-color="#C8C8C8"/><stop offset="1" stop-color="#BDBDBD"/></linearGradient><linearGradient id="paint1_linear" x1="21.031" y1="10.724" x2="11.297" y2="137.372" gradientUnits="userSpaceOnUse"><stop stop-color="#fff" stop-opacity=".01"/><stop offset="1" stop-color="#D6D6D6" stop-opacity=".5"/></linearGradient><linearGradient id="paint2_linear" x1="94.232" y1="138.761" x2="93.92" y2="188.616" gradientUnits="userSpaceOnUse"><stop stop-color="#fff"/><stop offset="1" stop-color="#EAEAEA"/></linearGradient><linearGradient id="paint3_linear" x1="118.898" y1="143.02" x2="111.454" y2="223.07" gradientUnits="userSpaceOnUse"><stop stop-color="#fff" stop-opacity=".5"/><stop offset=".174" stop-color="#fff" stop-opacity=".5"/><stop offset="1" stop-color="#CFCFCF" stop-opacity=".5"/></linearGradient><filter id="filter0_i" x="1.374" y="-28.57" width="508.502" height="270.841" filterUnits="userSpaceOnUse" color-interpolation-filters="sRGB"><feFlood flood-opacity="0" result="BackgroundImageFix"/><feBlend in="SourceGraphic" in2="BackgroundImageFix" result="shape"/><feColorMatrix in="SourceAlpha" values="0 0 0 0 0 0 0 0 0 0 0 0 0 0 0 0 0 0 127 0" result="hardAlpha"/><feOffset dy="1"/><feGaussianBlur stdDeviation="20.5"/><feComposite in2="hardAlpha" operator="arithmetic" k2="-1" k3="1"/><feColorMatrix values="0 0 0 0 0 0 0 0 0 0 0 0 0 0 0 0 0 0 0.15 0"/><feBlend in2="shape" result="effect1_innerShadow"/></filter></defs></svg>